HIERARCHY
ROOT hip
{
	OFFSET 0.000000 -102.168968 0.000000
	CHANNELS 6 Xposition Yposition Zposition Zrotation Xrotation Yrotation
	JOINT abdomen
	{
		OFFSET 0.000000 6.096001 0.000000
		CHANNELS 3 Zrotation Xrotation Yrotation
		JOINT chest
		{
			OFFSET 0.000000 15.118080 -1.219200
			CHANNELS 3 Zrotation Xrotation Yrotation
			JOINT neck
			{
				OFFSET 0.000000 18.287994 -0.487680
				CHANNELS 3 Zrotation Xrotation Yrotation
				JOINT head
				{
					OFFSET 0.000000 5.608322 0.000000
					CHANNELS 3 Zrotation Xrotation Yrotation
					End Site
					{
						OFFSET 11.948160 -6.339828 -0.975360
					}
				}
			}
			JOINT lCollar
			{
				OFFSET 6.096000 11.948166 -1.463040
				CHANNELS 3 Zrotation Xrotation Yrotation
				JOINT lShldr
				{
					OFFSET 5.852160 0.000000 0.000000
					CHANNELS 3 Zrotation Xrotation Yrotation
					JOINT lForeArm
					{
						OFFSET 18.044161 0.000000 0.000000
						CHANNELS 3 Zrotation Xrotation Yrotation
						JOINT lHand
						{
							OFFSET 15.118080 0.000000 0.000000
							CHANNELS 3 Zrotation Xrotation Yrotation
							End Site
							{
								OFFSET -11.948160 -6.339828 -0.975360
							}
						}
					}
				}
			}
			JOINT rCollar
			{
				OFFSET -6.339839 11.948166 -1.463040
				CHANNELS 3 Zrotation Xrotation Yrotation
				JOINT rShldr
				{
					OFFSET -5.608321 0.000000 0.000000
					CHANNELS 3 Zrotation Xrotation Yrotation
					JOINT rForeArm
					{
						OFFSET -18.287998 0.000000 0.000000
						CHANNELS 3 Zrotation Xrotation Yrotation
						JOINT rHand
						{
							OFFSET -14.874243 0.000000 0.000000
							CHANNELS 3 Zrotation Xrotation Yrotation
							End Site
							{
								OFFSET 5.852160 -33.649918 2.438400
							}
						}
					}
				}
			}
		}
	}
	JOINT lThigh
	{
		OFFSET 9.509760 -2.926079 2.438400
		CHANNELS 3 Zrotation Xrotation Yrotation
		JOINT lShin
		{
			OFFSET -3.657600 -35.844475 0.000000
			CHANNELS 3 Zrotation Xrotation Yrotation
			JOINT lFoot
			{
				OFFSET 0.000000 -34.381443 -2.194560
				CHANNELS 3 Zrotation Xrotation Yrotation
				End Site
				{
					OFFSET -5.852160 -33.649918 2.438400
				}
			}
		}
	}
	JOINT rThigh
	{
		OFFSET -9.509760 -2.926079 2.438400
		CHANNELS 3 Zrotation Xrotation Yrotation
		JOINT rShin
		{
			OFFSET 3.657600 -35.844475 0.000000
			CHANNELS 3 Zrotation Xrotation Yrotation
			JOINT rFoot
			{
				OFFSET 0.000000 -34.381443 -2.194560
				CHANNELS 3 Zrotation Xrotation Yrotation
				End Site
				{
					OFFSET 0.000000 -4.389120 8.290560
				}
			}
		}
	}
}
MOTION
Frames:	18
Frame Time:	0.05
0.000000 0.000000 0.000000 0.000000 0.060000 0.000000 6.169456 10.863076 -1.093704 3.576828 2.194152 0.764591 2.956044 -1.893411 0.090689 0.000000 0.060000 14.268349 -17.140825 8.115247 -19.660669 -17.821938 6.730522 -30.255089 4.411898 -1.915205 -7.556291 11.119530 -33.811836 3.474980 25.424423 14.055011 25.199680 -5.774756 -20.001219 -0.702535 0.302651 -2.028198 73.831696 9.268349 2.442060 -3.274073 121.897514 -53.336277 108.926117 171.352310 54.633854 -173.903442 0.416744 -11.709428 -29.163364 -130.817642 -48.732914 -121.062958 -170.741501 57.259682 174.421143 -19.101460 -9.389817 27.020300 
0.000000 -48.108814 -21.521935 0.000000 0.000000 0.000000 6.169456 10.803076 -1.093704 3.576828 2.134152 0.764591 2.956044 -1.953411 0.090689 0.000000 0.000000 14.268349 -17.140825 8.055246 -19.660669 -17.821938 6.670522 -30.255089 4.411898 -1.975205 -7.556291 11.119530 -33.871838 3.474980 25.424423 13.995010 25.199680 -5.774756 -20.061218 -0.702535 0.302651 -2.088198 73.831696 9.268349 2.382060 -3.274073 121.897514 -53.396278 108.926117 171.352310 54.573853 -173.903442 0.416744 -11.769428 -29.163364 -130.817642 -48.792915 -121.062958 -170.741501 57.199680 174.421143 -19.101460 -9.449818 27.020300 
0.000000 -48.108814 -21.521935 0.000000 0.000000 0.000000 6.169456 10.803076 -1.093704 3.576828 2.134152 0.764591 2.956044 -1.953411 0.090689 0.000000 0.000000 14.268349 -17.140825 8.055246 -19.660669 -17.821938 6.670522 -30.255089 4.411898 -1.975205 -7.556291 11.119530 -33.871838 3.474980 25.424423 13.995010 25.199680 -5.774756 -20.061218 -0.702535 0.302651 -2.088198 73.831696 9.268349 2.382060 -3.274073 121.897514 -53.396278 108.926117 171.352310 54.573853 -173.903442 0.416744 -11.769428 -29.163364 -130.817642 -48.792915 -121.062958 -170.741501 57.199680 174.421143 -19.101460 -9.449818 27.020300 
0.000000 -48.108814 -21.521935 0.000000 0.000000 0.000000 6.169456 10.803076 -1.093704 3.576828 2.134152 0.764591 2.956044 -1.953411 0.090689 0.000000 0.000000 14.268349 -17.140825 8.055246 -19.660669 -17.821938 6.670522 -30.255089 4.411898 -1.975205 -7.556291 11.119530 -33.871838 3.474980 25.424423 13.995010 25.199680 -5.774756 -20.061218 -0.702535 0.302651 -2.088198 73.831696 9.268349 2.382060 -3.274073 121.897514 -53.396278 108.926117 171.352310 54.573853 -173.903442 0.416744 -11.769428 -29.163364 -130.817642 -48.792915 -121.062958 -170.741501 57.199680 174.421143 -19.101460 -9.449818 27.020300 
0.000000 -48.108814 -21.521935 0.000000 0.000000 0.000000 6.169456 10.803076 -1.093704 3.576828 2.134152 0.764591 2.956044 -1.953411 0.090689 0.000000 0.000000 14.268349 -17.140825 8.055246 -19.660669 -17.821938 6.670522 -30.255089 4.411898 -1.975205 -7.556291 11.119530 -33.871838 3.474980 25.424423 13.995010 25.199680 -5.774756 -20.061218 -0.702535 0.302651 -2.088198 73.831696 9.268349 2.382060 -3.274073 121.897514 -53.396278 108.926117 171.352310 54.573853 -173.903442 0.416744 -11.769428 -29.163364 -130.817642 -48.792915 -121.062958 -170.741501 57.199680 174.421143 -19.101460 -9.449818 27.020300 
0.000000 -48.108814 -21.521935 0.000000 0.000000 0.000000 6.169456 10.803076 -1.093704 3.576828 2.134152 0.764591 2.956044 -1.953411 0.090689 0.000000 0.000000 14.268349 -17.140825 8.055246 -19.660669 -17.821938 6.670522 -30.255089 4.411898 -1.975205 -7.556291 11.119530 -33.871838 3.474980 25.424423 13.995010 25.199680 -5.774756 -20.061218 -0.702535 0.302651 -2.088198 73.831696 9.268349 2.382060 -3.274073 121.897514 -53.396278 108.926117 171.352310 54.573853 -173.903442 0.416744 -11.769428 -29.163364 -130.817642 -48.792915 -121.062958 -170.741501 57.199680 174.421143 -19.101460 -9.449818 27.020300 
0.000000 -48.108814 -21.521935 0.000000 0.000000 0.000000 6.169456 10.803076 -1.093704 3.576828 2.134152 0.764591 2.956044 -1.953411 0.090689 0.000000 0.000000 14.268349 -17.140825 8.055246 -19.660669 -17.821938 6.670522 -30.255089 4.411898 -1.975205 -7.556291 11.119530 -33.871838 3.474980 25.424423 13.995010 25.199680 -5.774756 -20.061218 -0.702535 0.302651 -2.088198 73.831696 9.268349 2.382060 -3.274073 121.897514 -53.396278 108.926117 171.352310 54.573853 -173.903442 0.416744 -11.769428 -29.163364 -130.817642 -48.792915 -121.062958 -170.741501 57.199680 174.421143 -19.101460 -9.449818 27.020300 
0.000000 -48.108814 -21.521935 0.000000 0.000000 0.000000 6.169456 10.803076 -1.093704 3.576828 2.134152 0.764591 2.956044 -1.953411 0.090689 0.000000 0.000000 14.268349 -17.140825 8.055246 -19.660669 -17.821938 6.670522 -30.255089 4.411898 -1.975205 -7.556291 11.119530 -33.871838 3.474980 25.424423 13.995010 25.199680 -5.774756 -20.061218 -0.702535 0.302651 -2.088198 73.831696 9.268349 2.382060 -3.274073 121.897514 -53.396278 108.926117 171.352310 54.573853 -173.903442 0.416744 -11.769428 -29.163364 -130.817642 -48.792915 -121.062958 -170.741501 57.199680 174.421143 -19.101460 -9.449818 27.020300 
0.000000 -48.108814 -21.521935 0.000000 0.000000 0.000000 6.169456 10.803076 -1.093704 3.576828 2.134152 0.764591 2.956044 -1.953411 0.090689 0.000000 0.000000 14.268349 -17.140825 8.055246 -19.660669 -17.821938 6.670522 -30.255089 4.411898 -1.975205 -7.556291 11.119530 -33.871838 3.474980 25.424423 13.995010 25.199680 -5.774756 -20.061218 -0.702535 0.302651 -2.088198 73.831696 9.268349 2.382060 -3.274073 121.897514 -53.396278 108.926117 171.352310 54.573853 -173.903442 0.416744 -11.769428 -29.163364 -130.817642 -48.792915 -121.062958 -170.741501 57.199680 174.421143 -19.101460 -9.449818 27.020300 
0.000000 -48.108814 -21.521935 0.000000 0.000000 0.000000 6.169456 10.803076 -1.093704 3.576828 2.134152 0.764591 2.956044 -1.953411 0.090689 0.000000 0.000000 14.268349 -17.140825 8.055246 -19.660669 -17.821938 6.670522 -30.255089 4.411898 -1.975205 -7.556291 11.119530 -33.871838 3.474980 25.424423 13.995010 25.199680 -5.774756 -20.061218 -0.702535 0.302651 -2.088198 73.831696 9.268349 2.382060 -3.274073 121.897514 -53.396278 108.926117 171.352310 54.573853 -173.903442 0.416744 -11.769428 -29.163364 -130.817642 -48.792915 -121.062958 -170.741501 57.199680 174.421143 -19.101460 -9.449818 27.020300 
0.000000 -48.108814 -21.521935 0.000000 0.000000 0.000000 6.169456 10.803076 -1.093704 3.576828 2.134152 0.764591 2.956044 -1.953411 0.090689 0.000000 0.000000 14.268349 -17.140825 8.055246 -19.660669 -17.821938 6.670522 -30.255089 4.411898 -1.975205 -7.556291 11.119530 -33.871838 3.474980 25.424423 13.995010 25.199680 -5.774756 -20.061218 -0.702535 0.302651 -2.088198 73.831696 9.268349 2.382060 -3.274073 121.897514 -53.396278 108.926117 171.352310 54.573853 -173.903442 0.416744 -11.769428 -29.163364 -130.817642 -48.792915 -121.062958 -170.741501 57.199680 174.421143 -19.101460 -9.449818 27.020300 
0.000000 -48.108814 -21.521935 0.000000 0.000000 0.000000 6.169456 10.803076 -1.093704 3.576828 2.134152 0.764591 2.956044 -1.953411 0.090689 0.000000 0.000000 14.268349 -17.140825 8.055246 -19.660669 -17.821938 6.670522 -30.255089 4.411898 -1.975205 -7.556291 11.119530 -33.871838 3.474980 25.424423 13.995010 25.199680 -5.774756 -20.061218 -0.702535 0.302651 -2.088198 73.831696 9.268349 2.382060 -3.274073 121.897514 -53.396278 108.926117 171.352310 54.573853 -173.903442 0.416744 -11.769428 -29.163364 -130.817642 -48.792915 -121.062958 -170.741501 57.199680 174.421143 -19.101460 -9.449818 27.020300 
0.000000 -48.108814 -21.521935 0.000000 0.000000 0.000000 6.169456 10.803076 -1.093704 3.576828 2.134152 0.764591 2.956044 -1.953411 0.090689 0.000000 0.000000 14.268349 -17.140825 8.055246 -19.660669 -17.821938 6.670522 -30.255089 4.411898 -1.975205 -7.556291 11.119530 -33.871838 3.474980 25.424423 13.995010 25.199680 -5.774756 -20.061218 -0.702535 0.302651 -2.088198 73.831696 9.268349 2.382060 -3.274073 121.897514 -53.396278 108.926117 171.352310 54.573853 -173.903442 0.416744 -11.769428 -29.163364 -130.817642 -48.792915 -121.062958 -170.741501 57.199680 174.421143 -19.101460 -9.449818 27.020300 
0.000000 -48.108814 -21.521935 0.000000 0.000000 0.000000 6.169456 10.803076 -1.093704 3.576828 2.134152 0.764591 2.956044 -1.953411 0.090689 0.000000 0.000000 14.268349 -17.140825 8.055246 -19.660669 -17.821938 6.670522 -30.255089 4.411898 -1.975205 -7.556291 11.119530 -33.871838 3.474980 25.424423 13.995010 25.199680 -5.774756 -20.061218 -0.702535 0.302651 -2.088198 73.831696 9.268349 2.382060 -3.274073 121.897514 -53.396278 108.926117 171.352310 54.573853 -173.903442 0.416744 -11.769428 -29.163364 -130.817642 -48.792915 -121.062958 -170.741501 57.199680 174.421143 -19.101460 -9.449818 27.020300 
0.000000 -48.108814 -21.521935 0.000000 0.000000 0.000000 6.169456 10.803076 -1.093704 3.576828 2.134152 0.764591 2.956044 -1.953411 0.090689 0.000000 0.000000 14.268349 -17.140825 8.055246 -19.660669 -17.821938 6.670522 -30.255089 4.411898 -1.975205 -7.556291 11.119530 -33.871838 3.474980 25.424423 13.995010 25.199680 -5.774756 -20.061218 -0.702535 0.302651 -2.088198 73.831696 9.268349 2.382060 -3.274073 121.897514 -53.396278 108.926117 171.352310 54.573853 -173.903442 0.416744 -11.769428 -29.163364 -130.817642 -48.792915 -121.062958 -170.741501 57.199680 174.421143 -19.101460 -9.449818 27.020300 
0.000000 -48.108814 -21.521935 0.000000 0.000000 0.000000 6.169456 10.803076 -1.093704 3.576828 2.134152 0.764591 2.956044 -1.953411 0.090689 0.000000 0.000000 14.268349 -17.140825 8.055246 -19.660669 -17.821938 6.670522 -30.255089 4.411898 -1.975205 -7.556291 11.119530 -33.871838 3.474980 25.424423 13.995010 25.199680 -5.774756 -20.061218 -0.702535 0.302651 -2.088198 73.831696 9.268349 2.382060 -3.274073 121.897514 -53.396278 108.926117 171.352310 54.573853 -173.903442 0.416744 -11.769428 -29.163364 -130.817642 -48.792915 -121.062958 -170.741501 57.199680 174.421143 -19.101460 -9.449818 27.020300 
0.000000 -48.108814 -21.521935 0.000000 0.000000 0.000000 6.169456 10.803076 -1.093704 3.576828 2.134152 0.764591 2.956044 -1.953411 0.090689 0.000000 0.000000 14.268349 -17.140825 8.055246 -19.660669 -17.821938 6.670522 -30.255089 4.411898 -1.975205 -7.556291 11.119530 -33.871838 3.474980 25.424423 13.995010 25.199680 -5.774756 -20.061218 -0.702535 0.302651 -2.088198 73.831696 9.268349 2.382060 -3.274073 121.897514 -53.396278 108.926117 171.352310 54.573853 -173.903442 0.416744 -11.769428 -29.163364 -130.817642 -48.792915 -121.062958 -170.741501 57.199680 174.421143 -19.101460 -9.449818 27.020300 
0.000000 -48.108814 -21.521935 0.000000 0.000000 0.000000 6.169456 10.803076 -1.093704 3.576828 2.134152 0.764591 2.956044 -1.953411 0.090689 0.000000 0.000000 14.268349 -17.140825 8.055246 -19.660669 -17.821938 6.670522 -30.255089 4.411898 -1.975205 -7.556291 11.119530 -33.871838 3.474980 25.424423 13.995010 25.199680 -5.774756 -20.061218 -0.702535 0.302651 -2.088198 73.831696 9.268349 2.382060 -3.274073 121.897514 -53.396278 108.926117 171.352310 54.573853 -173.903442 0.416744 -11.769428 -29.163364 -130.817642 -48.792915 -121.062958 -170.741501 57.199680 174.421143 -19.101460 -9.449818 27.020300 
